# xmcd
#
# Track frame offsets: 
#        150
#        21250
#        61773
#        90574
#        108238
#        146073
#        173242
#
# Disc length: 2710 seconds
#
# Revision: 0
# Processed by: cddbd v1.5.2PL0 Copyright (c) Steve Scherf et al.
# Submitted via: ExactAudioCopy v1.0b4
#
DISCID=550a9407
DTITLE=John Mayall and The Blues Breakers - Behind The Iron Curtain (LP)
DYEAR=1985
DGENRE=Blues
TTITLE0=Somebody' s Acting Like A Child
TTITLE1=Rolling With The Blues
TTITLE2=The Laws Must Change
TTITLE3=Parchman Farm
TTITLE4=Have You Heard
TTITLE5=Fly Tomorrow
TTITLE6=Steppin' Out
EXTD=
EXTT0=
EXTT1=
EXTT2=
EXTT3=
EXTT4=
EXTT5=
EXTT6=
PLAYORDER=
